<?xml version="1.0" encoding="UTF-8" standalone="no"?>
<!-- Generator: Adobe Illustrator 18.0.0, SVG Export Plug-In . SVG Version: 6.00 Build 0)  -->

<svg
   xmlns:dc="http://purl.org/dc/elements/1.1/"
   xmlns:cc="http://creativecommons.org/ns#"
   xmlns:rdf="http://www.w3.org/1999/02/22-rdf-syntax-ns#"
   xmlns:svg="http://www.w3.org/2000/svg"
   xmlns="http://www.w3.org/2000/svg"
   xmlns:sodipodi="http://sodipodi.sourceforge.net/DTD/sodipodi-0.dtd"
   xmlns:inkscape="http://www.inkscape.org/namespaces/inkscape"
   version="1.1"
   id="Layer_2_1_"
   x="0px"
   y="0px"
   viewBox="0 0 841.9 595.3"
   enable-background="new 0 0 841.9 595.3"
   xml:space="preserve"
   inkscape:version="0.91 r13725"
   sodipodi:docname="logo.svg"><metadata
     id="metadata17"><rdf:RDF><cc:Work
         rdf:about=""><dc:format>image/svg+xml</dc:format><dc:type
           rdf:resource="http://purl.org/dc/dcmitype/StillImage" /><dc:title /></cc:Work></rdf:RDF></metadata><defs
     id="defs15" /><sodipodi:namedview
     pagecolor="#ffffff"
     bordercolor="#666666"
     borderopacity="1"
     objecttolerance="10"
     gridtolerance="10"
     guidetolerance="10"
     inkscape:pageopacity="0"
     inkscape:pageshadow="2"
     inkscape:window-width="1920"
     inkscape:window-height="1027"
     id="namedview13"
     showgrid="false"
     inkscape:zoom="0.38128043"
     inkscape:cx="-48.482489"
     inkscape:cy="353.13578"
     inkscape:window-x="0"
     inkscape:window-y="0"
     inkscape:window-maximized="1"
     inkscape:current-layer="layer1" /><g
     id="g3"
     style="fill:#00d8ff;fill-opacity:1"><path
       d="M666.3,296.5c0-32.5-40.7-63.3-103.1-82.4c14.4-63.6,8-114.2-20.2-130.4c-6.5-3.8-14.1-5.6-22.4-5.6v22.3   c4.6,0,8.3,0.9,11.4,2.6c13.6,7.8,19.5,37.5,14.9,75.7c-1.1,9.4-2.9,19.3-5.1,29.4c-19.6-4.8-41-8.5-63.5-10.9   c-13.5-18.5-27.5-35.3-41.6-50c32.6-30.3,63.2-46.9,84-46.9l0-22.3c0,0,0,0,0,0c-27.5,0-63.5,19.6-99.9,53.6   c-36.4-33.8-72.4-53.2-99.9-53.2v22.3c20.7,0,51.4,16.5,84,46.6c-14,14.7-28,31.4-41.3,49.9c-22.6,2.4-44,6.1-63.6,11   c-2.3-10-4-19.7-5.2-29c-4.7-38.2,1.1-67.9,14.6-75.8c3-1.8,6.9-2.6,11.5-2.6l0-22.3c0,0,0,0,0,0c-8.4,0-16,1.8-22.6,5.6   c-28.1,16.2-34.4,66.7-19.9,130.1c-62.2,19.2-102.7,49.9-102.7,82.3c0,32.5,40.7,63.3,103.1,82.4c-14.4,63.6-8,114.2,20.2,130.4   c6.5,3.8,14.1,5.6,22.5,5.6c27.5,0,63.5-19.6,99.9-53.6c36.4,33.8,72.4,53.2,99.9,53.2c8.4,0,16-1.8,22.6-5.6   c28.1-16.2,34.4-66.7,19.9-130.1C625.8,359.7,666.3,328.9,666.3,296.5z M536.1,229.8c-3.7,12.9-8.3,26.2-13.5,39.5   c-4.1-8-8.4-16-13.1-24c-4.6-8-9.5-15.8-14.4-23.4C509.3,224,523,226.6,536.1,229.8z M490.3,336.3c-7.8,13.5-15.8,26.3-24.1,38.2   c-14.9,1.3-30,2-45.2,2c-15.1,0-30.2-0.7-45-1.9c-8.3-11.9-16.4-24.6-24.2-38c-7.6-13.1-14.5-26.4-20.8-39.8   c6.2-13.4,13.2-26.8,20.7-39.9c7.8-13.5,15.8-26.3,24.1-38.2c14.9-1.3,30-2,45.2-2c15.1,0,30.2,0.7,45,1.9   c8.3,11.9,16.4,24.6,24.2,38c7.6,13.1,14.5,26.4,20.8,39.8C504.7,309.8,497.8,323.2,490.3,336.3z M522.6,323.3   c5.4,13.4,10,26.8,13.8,39.8c-13.1,3.2-26.9,5.9-41.2,8c4.9-7.7,9.8-15.6,14.4-23.7C514.2,339.4,518.5,331.3,522.6,323.3z    M421.2,430c-9.3-9.6-18.6-20.3-27.8-32c9,0.4,18.2,0.7,27.5,0.7c9.4,0,18.7-0.2,27.8-0.7C439.7,409.7,430.4,420.4,421.2,430z    M346.8,371.1c-14.2-2.1-27.9-4.7-41-7.9c3.7-12.9,8.3-26.2,13.5-39.5c4.1,8,8.4,16,13.1,24C337.1,355.7,341.9,363.5,346.8,371.1z    M420.7,163c9.3,9.6,18.6,20.3,27.8,32c-9-0.4-18.2-0.7-27.5-0.7c-9.4,0-18.7,0.2-27.8,0.7C402.2,183.3,411.5,172.6,420.7,163z    M346.7,221.9c-4.9,7.7-9.8,15.6-14.4,23.7c-4.6,8-8.9,16-13,24c-5.4-13.4-10-26.8-13.8-39.8C318.6,226.7,332.4,224,346.7,221.9z    M256.2,347.1c-35.4-15.1-58.3-34.9-58.3-50.6c0-15.7,22.9-35.6,58.3-50.6c8.6-3.7,18-7,27.7-10.1c5.7,19.6,13.2,40,22.5,60.9   c-9.2,20.8-16.6,41.1-22.2,60.6C274.3,354.2,264.9,350.8,256.2,347.1z M310,490c-13.6-7.8-19.5-37.5-14.9-75.7   c1.1-9.4,2.9-19.3,5.1-29.4c19.6,4.8,41,8.5,63.5,10.9c13.5,18.5,27.5,35.3,41.6,50c-32.6,30.3-63.2,46.9-84,46.9   C316.8,492.6,313,491.7,310,490z M547.2,413.8c4.7,38.2-1.1,67.9-14.6,75.8c-3,1.8-6.9,2.6-11.5,2.6c-20.7,0-51.4-16.5-84-46.6   c14-14.7,28-31.4,41.3-49.9c22.6-2.4,44-6.1,63.6-11C544.3,394.8,546.1,404.5,547.2,413.8z M585.7,347.1c-8.6,3.7-18,7-27.7,10.1   c-5.7-19.6-13.2-40-22.5-60.9c9.2-20.8,16.6-41.1,22.2-60.6c9.9,3.1,19.3,6.5,28.1,10.2c35.4,15.1,58.3,34.9,58.3,50.6   C644,312.2,621.1,332.1,585.7,347.1z"
       id="path5"
       fill="#61DAFB"
       style="fill:#00d8ff;fill-opacity:1" /><polygon
       points="320.8,78.4 320.8,78.4 320.8,78.4  "
       id="polygon7"
       fill="#61DAFB"
       style="fill:#00d8ff;fill-opacity:1" /><polygon
       points="520.5,78.1 520.5,78.1 520.5,78.1  "
       id="polygon11"
       fill="#61DAFB"
       style="fill:#00d8ff;fill-opacity:1" /></g><g
     inkscape:groupmode="layer"
     id="layer1"
     inkscape:label="Erde"
     style="display:inline"><g
       id="g3027"
       transform="matrix(0.07884917,0,0,-0.07884917,360.09951,347.05867)"
       style="fill:#000080;fill-opacity:1"><path
         style="fill:#000080;fill-opacity:1"
         inkscape:connector-curvature="0"
         id="path3029"
         d="m 1193,993 q 11,7 25,22 l 0,-1 q 0,-2 -9.5,-10 -9.5,-8 -11.5,-12 -1,1 -4,1 z m -6,-1 q -1,1 -2.5,3 -1.5,2 -1.5,3 3,-2 10,-5 -6,-4 -6,-1 z m -459,183 q -16,2 -26,5 1,0 6.5,-1 5.5,-1 10.5,-2 5,-1 9,-2 z m 45,37 q 7,4 13.5,2.5 6.5,-1.5 7.5,-7.5 -5,3 -21,5 z m -8,-6 -3,2 q -2,3 -5.5,5 -3.5,2 -4.5,2 2,-1 21,-3 -6,-4 -8,-6 z m -102,84 0,2 q 1,-2 3,-5.5 2,-3.5 3,-5.5 z m -105,-40 q 0,-2 -1,-2 l -1,2 2,0 z m 375,-1044 0,-1 0,1 z M 768,1408 q 209,0 385.5,-103 Q 1330,1202 1433,1025.5 1536,849 1536,640 1536,431 1433,254.5 1330,78 1153.5,-25 977,-128 768,-128 559,-128 382.5,-25 206,78 103,254.5 0,431 0,640 0,849 103,1025.5 206,1202 382.5,1305 559,1408 768,1408 Z m 472,-1246 5,5 q -7,10 -29,12 1,12 -14,26.5 -15,14.5 -27,15.5 0,4 -10.5,11 -10.5,7 -17.5,8 -9,2 -27,-9 -7,-3 -4,-5 -3,3 -12,11 -9,8 -16,11 -2,1 -7.5,1 -5.5,0 -8.5,2 -1,1 -6,4.5 -5,3.5 -7,4.5 -2,1 -6.5,3 -4.5,2 -7.5,1.5 -3,-0.5 -7.5,-2.5 -4.5,-2 -8.5,-6 -4,-4 -4.5,-15.5 -0.5,-11.5 -2.5,-14.5 -8,6 -0.5,20 7.5,14 1.5,20 -7,7 -21,0.5 -14,-6.5 -21,-15.5 -1,-1 -9.5,-5.5 Q 963,241 960,238 q -4,-6 -9,-17.5 -5,-11.5 -6,-13.5 0,2 -2.5,6.5 -2.5,4.5 -2.5,6.5 -12,-2 -16,3 5,-16 8,-17 l -4,2 q -1,-6 3,-15 4,-9 4,-11 1,-5 -1.5,-13 -2.5,-8 -2.5,-11 0,-2 5,-11 4,-19 -2,-32 0,-1 -3.5,-7 -3.5,-6 -6.5,-11 l -2,-5 -2,1 q -1,1 -2,0 -1,-6 -9,-13 -8,-7 -10,-11 -15,-23 -9,-38 3,-8 10,-10 3,-1 3,2 1,-9 -11,-27 1,-1 4,-3 -17,0 -10,-14 202,36 352,181 l -3,0 z M 680,347 q 16,3 30.5,-16 14.5,-19 22.5,-23 41,-20 59,-11 0,-9 14,-28 3,-4 6.5,-11.5 3.5,-7.5 5.5,-10.5 5,-7 19,-16 14,-9 19,-16 6,3 9,9 13,-35 24,-34 5,0 8,8 0,-1 -0.5,-3 -0.5,-2 -1.5,-3 7,15 5,26 l 6,4 q 5,4 5,5 -6,6 -9,-3 -30,-14 -48,22 -2,3 -4.5,8 -2.5,5 -5,12 -2.5,7 -1.5,11.5 1,4.5 6,4.5 11,0 12.5,1.5 1.5,1.5 -2.5,6 -4,4.5 -4,7.5 -1,4 -1.5,12.5 Q 853,318 852,322 l -5,6 q -5,6 -11.5,13.5 -6.5,7.5 -7.5,9.5 -4,-10 -16.5,-8.5 -12.5,1.5 -18.5,9.5 1,-2 -0.5,-6.5 -1.5,-4.5 -1.5,-6.5 -14,0 -17,1 1,6 3,21 2,15 4,22 1,5 5.5,13.5 4.5,8.5 8,15.5 3.5,7 4.5,14 1,7 -4.5,10.5 -5.5,3.5 -18.5,2.5 -20,-1 -29,-22 -1,-3 -3,-11.5 -2,-8.5 -5,-12.5 -3,-4 -9,-7 -8,-3 -27,-2 -19,1 -26,5 -14,8 -24,30.5 -10,22.5 -11,41.5 0,10 3,27.5 3,17.5 3,27 0,9.5 -6,26.5 3,2 10,10.5 7,8.5 11,11.5 2,2 5,2 l 5,0 q 0,0 4,2 4,2 3,6 -1,1 -4,3 -3,3 -4,3 4,-3 19,-1 15,2 19,2 0,1 22,0 17,-13 24,2 0,1 -2.5,10.5 -2.5,9.5 -0.5,14.5 5,-29 32,-10 3,-4 16.5,-6 13.5,-2 18.5,-5 3,-2 7,-5.5 4,-3.5 6,-5 2,-1.5 6,-0.5 4,1 9,7 11,-17 13,-25 11,-43 20,-48 8,-2 12.5,-2 4.5,0 5,10.5 0.5,10.5 0,15.5 -0.5,5 -1.5,13 l -2,37 q -16,3 -20,12.5 -4,9.5 1.5,20 5.5,10.5 16.5,19.5 1,1 16.5,8 15.5,7 21.5,12 24,19 17,39 9,-2 11,9 l -5,3 q -4,3 -8,5.5 -4,2.5 -5,1.5 11,7 2,18 5,3 8,11.5 3,8.5 9,11.5 9,-14 22,-3 8,9 2,18 5,8 22,11.5 17,3.5 20,9.5 5,-1 7,0 2,1 2,4.5 l 0,7.5 q 0,0 1,8.5 1,8.5 3,7.5 4,6 16,10.5 12,4.5 14,5.5 l 19,12 q 4,4 0,4 18,-2 32,11 13,12 -5,23 2,7 -4,10.5 -6,3.5 -16,5.5 3,1 12,0.5 9,-0.5 12,1.5 15,11 -7,17 -20,5 -47,-13 -3,-2 -13,-12 -10,-10 -17,-11 15,18 5,22 8,-1 22.5,9 14.5,10 15.5,11 4,2 10.5,2.5 6.5,0.5 8.5,1.5 71,25 92,-1 8,11 11,15 3,4 9.5,9 6.5,5 15.5,8 21,7 23,9 l 1,23 q -12,-1 -18,8 -6,9 -7,22 l -6,-8 q 0,6 -3.5,7.5 -3.5,1.5 -7.5,0.5 -4,-1 -9.5,-2 -5.5,-1 -7.5,0 -9,2 -19.5,15.5 -10.5,13.5 -14.5,16.5 9,0 9,5 -2,5 -10,8 1,6 -2,8 -3,2 -9,0 -2,12 -1,13 -6,1 -11,11 -5,10 -8,10 -2,0 -4.5,-2 -2.5,-2 -5,-5.5 l -5,-7 q 0,0 -3.5,-5.5 l -2,-2 q -12,6 -24,-10 -9,1 -17,-2 15,6 2,13 -11,5 -21,2 12,5 10,14 -2,9 -12,16 1,0 4,-1 3,-1 4,-1 -1,5 -9.5,9.5 -8.5,4.5 -19.5,9 -11,4.5 -14,6.5 -7,5 -36,10.5 -29,5.5 -36,1.5 -5,-3 -6,-6 -1,-3 1.5,-8.5 2.5,-5.5 3.5,-8.5 6,-23 5,-27 -1,-3 -8.5,-8 -7.5,-5 -5.5,-12 1,-4 11.5,-10 10.5,-6 12.5,-12 5,-13 -4,-25 -4,-5 -15,-11 -11,-6 -14,-10 -5,-5 -3.5,-11.5 1.5,-6.5 0.5,-9.5 1,1 1,2.5 0,1.5 1,2.5 0,-13 11,-22 8,-6 -16,-18 -20,-11 -20,-4 1,8 -7.5,16 -8.5,8 -10.5,12 -2,4 -3.5,19 -1.5,15 -9.5,21 -6,4 -19,4 -13,0 -18,-5 0,10 -49,30 -17,8 -58,4 7,1 0,17 -8,16 -21,12 -8,25 -4,35 2,5 9,14 7,9 9,15 1,3 15.5,6 14.5,3 16.5,8 1,4 -2.5,6.5 -3.5,2.5 -9.5,4.5 53,-6 63,18 5,9 3,14 0,-1 2,-1 2,0 2,-1 12,3 7,17 19,8 26,8 5,-1 11,-6 6,-5 10,-5 17,-3 21.5,10 4.5,13 -9.5,23 7,-4 7,6 -1,13 -7,19 -3,2 -6.5,2.5 -3.5,0.5 -6.5,0 -3,-0.5 -7,0.5 -1,0 -8,2 -1,-1 -2,-1 l -8,0 q -4,-2 -4,-5 l 0,-1 q -1,-3 4,-6 l 5,-1 3,-2 q -1,0 -2.5,-2.5 -1.5,-2.5 -2.5,-2.5 0,-3 3,-5 -2,-1 -14,-7.5 -12,-6.5 -17,-10.5 -1,-1 -4,-2.5 -3,-1.5 -4,-2.5 -2,-1 -4,2 -2,3 -4,9 -2,6 -4,11.5 -2,5.5 -4.5,10 -2.5,4.5 -5.5,4.5 -12,0 -18,-17 3,10 -13,17.5 -16,7.5 -25,7.5 20,15 -9,30 l -1,1 q -30,-4 -45,-7 -2,-6 3,-12 -1,-7 6,-9 0,-1 0.5,-1 0.5,0 0.5,-1 0,1 -0.5,1 -0.5,0 -0.5,1 3,-1 10.5,-1.5 7.5,-0.5 9.5,-1.5 3,-1 4.5,-2 l 7.5,-5 q 0,0 5.5,-6 5.5,-6 -2.5,-5 -2,-1 -9,-4 -7,-3 -12.5,-5.5 -5.5,-2.5 -6.5,-3.5 -3,-5 0,-16 3,-11 -2,-15 -5,5 -10,18.5 -5,13.5 -8,17.5 8,-9 -30,-6 l -8,1 q -4,0 -15,-2 -11,-2 -16,-1 -7,0 -29,6 7,17 5,25 5,0 7,2 l -6,3 q -3,-1 -25,-9 2,-3 8,-9.5 6,-6.5 9,-11.5 -22,6 -27,-2 0,-1 -9,0 -25,1 -24,-7 1,-4 9,-12 0,-9 -1,-9 -27,22 -30,23 -172,-83 -276,-248 1,-2 2.5,-11 1.5,-9 3.5,-8.5 2,0.5 11,4.5 9,-9 3,-21 2,2 36,-21 56,-40 22,-53 l 0,5.5 q 0,0 1,6.5 -9,-1 -19,5 -3,-6 0.5,-20 3.5,-14 11.5,-14 -8,0 -10.5,-17 Q 257,834 257,812.5 257,791 256,787 l 2,-1 q -3,-13 6,-37.5 9,-24.5 24,-20.5 -4,-18 5,-21 -1,-4 0,-8 1,-4 4.5,-8.5 3.5,-4.5 6,-7 l 7.5,-7.5 6,-6 q 28,-11 41,-29 4,-6 10.5,-24.5 Q 375,598 384,591 q -2,-6 10,-21.5 12,-15.5 11,-25.5 -1,0 -2.5,-0.5 -1.5,-0.5 -2.5,-0.5 3,-8 16.5,-16 13.5,-8 16.5,-14 2,-3 2.5,-10.5 0.5,-7.5 3,-12 2.5,-4.5 8.5,-2.5 3,24 -26,68 -16,27 -18,31 -3,5 -5.5,16.5 -2.5,11.5 -4.5,15.5 27,-9 26,-13 -5,-10 26,-52 2,-3 10,-10 8,-7 11,-12 3,-4 9.5,-14.5 Q 482,507 486,502 q -1,0 -3,-2 l -3,-3 q 4,-2 9,-5 5,-3 8,-4.5 3,-1.5 7.5,-5 4.5,-3.5 7.5,-7.5 16,-18 20,-33 1,-4 0.5,-15.5 Q 532,415 534,410 q 2,-6 6,-11 4,-5 11.5,-10 7.5,-5 11.5,-7 4,-2 14.5,-6.5 10.5,-4.5 11.5,-5.5 2,-1 18,-11 16,-10 25,-14 10,-4 16.5,-4.5 6.5,-0.5 16,2.5 9.5,3 15.5,4 z" /></g></g></svg>
